# xmcd CD database file
#
# Track frame offsets:
#	150
#	12909
#	25979
#	40458
#	56056
#	70767
#	85758
#	98159
#	110792
#	125209
#	141147
#	154635
#
# Disc length: 2307 seconds
#
# Revision: 0
# Processed by: cddbd v1.5.2PL0 Copyright (c) Steve Scherf et al.
# Submitted via: CDex 1.51
#
DISCID=a509010c
DTITLE=Gurizinho - Gurizinho
DYEAR=2006
DGENRE=Country
TTITLE0=Gurizinho - Ve se leva a sério
TTITLE1=Gurizinho - Faz de Conta
TTITLE2=Gurizinho -  Sempre com Você
TTITLE3=Gurizinho - Sonho
TTITLE4=Gurizinho - Jogo do Amor
TTITLE5=Gurizinho - Amanhã
TTITLE6=Gurizinho - Quem te ama sou eu
TTITLE7=Gurizinho - Meu destino
TTITLE8=Gurizinho - Não te quero sai pra la
TTITLE9=Gurizinho - Prefiro o violão
TTITLE10=Gurizinho - Vai viola
TTITLE11=Gurizinho - Falando Sério
EXTD=YEAR: 2006
EXTT0=
EXTT1=
EXTT2=
EXTT3=
EXTT4=
EXTT5=
EXTT6=
EXTT7=
EXTT8=
EXTT9=
EXTT10=
EXTT11=
PLAYORDER=
